<mxfile host="app.diagrams.net" modified="2023-03-31T10:39:48.276Z" agent="Mozilla/5.0 (Windows NT 10.0; Win64; x64) AppleWebKit/537.36 (KHTML, like Gecko) Chrome/111.0.0.0 Safari/537.36 Edg/111.0.1661.54" etag="N7ZArrVr2-k3qcIv9kes" version="21.1.2" type="github">
  <diagram name="第 1 页" id="HEyQmr1OZS6UsP6m-MP0">
    <mxGraphModel dx="1562" dy="837" grid="1" gridSize="10" guides="1" tooltips="1" connect="1" arrows="1" fold="1" page="1" pageScale="1" pageWidth="827" pageHeight="1169" math="0" shadow="0">
      <root>
        <mxCell id="0" />
        <mxCell id="1" parent="0" />
        <mxCell id="7GRyJ-NEzZE_JQE0cx6V-10" value="" style="group" vertex="1" connectable="0" parent="1">
          <mxGeometry x="240" y="120" width="320" height="40" as="geometry" />
        </mxCell>
        <mxCell id="7GRyJ-NEzZE_JQE0cx6V-2" value="1" style="rounded=0;whiteSpace=wrap;html=1;fontSize=16;" vertex="1" parent="7GRyJ-NEzZE_JQE0cx6V-10">
          <mxGeometry width="40" height="40" as="geometry" />
        </mxCell>
        <mxCell id="7GRyJ-NEzZE_JQE0cx6V-3" value="-1" style="rounded=0;whiteSpace=wrap;html=1;fontSize=16;" vertex="1" parent="7GRyJ-NEzZE_JQE0cx6V-10">
          <mxGeometry x="80" width="40" height="40" as="geometry" />
        </mxCell>
        <mxCell id="7GRyJ-NEzZE_JQE0cx6V-4" value="-3" style="rounded=0;whiteSpace=wrap;html=1;fontSize=16;" vertex="1" parent="7GRyJ-NEzZE_JQE0cx6V-10">
          <mxGeometry x="120" width="40" height="40" as="geometry" />
        </mxCell>
        <mxCell id="7GRyJ-NEzZE_JQE0cx6V-5" value="3" style="rounded=0;whiteSpace=wrap;html=1;fontSize=16;" vertex="1" parent="7GRyJ-NEzZE_JQE0cx6V-10">
          <mxGeometry x="40" width="40" height="40" as="geometry" />
        </mxCell>
        <mxCell id="7GRyJ-NEzZE_JQE0cx6V-6" value="3" style="rounded=0;whiteSpace=wrap;html=1;fontSize=16;" vertex="1" parent="7GRyJ-NEzZE_JQE0cx6V-10">
          <mxGeometry x="200" width="40" height="40" as="geometry" />
        </mxCell>
        <mxCell id="7GRyJ-NEzZE_JQE0cx6V-7" value="5" style="rounded=0;whiteSpace=wrap;html=1;fontSize=16;" vertex="1" parent="7GRyJ-NEzZE_JQE0cx6V-10">
          <mxGeometry x="160" width="40" height="40" as="geometry" />
        </mxCell>
        <mxCell id="7GRyJ-NEzZE_JQE0cx6V-8" value="6" style="rounded=0;whiteSpace=wrap;html=1;fontSize=16;" vertex="1" parent="7GRyJ-NEzZE_JQE0cx6V-10">
          <mxGeometry x="240" width="40" height="40" as="geometry" />
        </mxCell>
        <mxCell id="7GRyJ-NEzZE_JQE0cx6V-9" value="7" style="rounded=0;whiteSpace=wrap;html=1;fontSize=16;" vertex="1" parent="7GRyJ-NEzZE_JQE0cx6V-10">
          <mxGeometry x="280" width="40" height="40" as="geometry" />
        </mxCell>
        <mxCell id="7GRyJ-NEzZE_JQE0cx6V-11" value="1" style="rounded=0;whiteSpace=wrap;html=1;fillColor=#dae8fc;strokeColor=#6c8ebf;" vertex="1" parent="1">
          <mxGeometry x="240" y="170" width="40" height="40" as="geometry" />
        </mxCell>
        <mxCell id="7GRyJ-NEzZE_JQE0cx6V-13" value="1" style="rounded=0;whiteSpace=wrap;html=1;" vertex="1" parent="1">
          <mxGeometry x="240" y="220" width="40" height="40" as="geometry" />
        </mxCell>
        <mxCell id="7GRyJ-NEzZE_JQE0cx6V-14" value="3" style="rounded=0;whiteSpace=wrap;html=1;fillColor=#dae8fc;strokeColor=#6c8ebf;" vertex="1" parent="1">
          <mxGeometry x="280" y="220" width="40" height="40" as="geometry" />
        </mxCell>
        <mxCell id="7GRyJ-NEzZE_JQE0cx6V-15" value="1" style="rounded=0;whiteSpace=wrap;html=1;" vertex="1" parent="1">
          <mxGeometry x="240" y="270" width="40" height="40" as="geometry" />
        </mxCell>
        <mxCell id="7GRyJ-NEzZE_JQE0cx6V-16" value="3" style="rounded=0;whiteSpace=wrap;html=1;" vertex="1" parent="1">
          <mxGeometry x="280" y="270" width="40" height="40" as="geometry" />
        </mxCell>
        <mxCell id="7GRyJ-NEzZE_JQE0cx6V-17" value="3" style="rounded=0;whiteSpace=wrap;html=1;fillColor=#dae8fc;strokeColor=#6c8ebf;" vertex="1" parent="1">
          <mxGeometry x="320" y="270" width="40" height="40" as="geometry" />
        </mxCell>
        <mxCell id="7GRyJ-NEzZE_JQE0cx6V-18" value="3" style="rounded=0;whiteSpace=wrap;html=1;fillColor=#dae8fc;strokeColor=#6c8ebf;" vertex="1" parent="1">
          <mxGeometry x="360" y="320" width="40" height="40" as="geometry" />
        </mxCell>
        <mxCell id="7GRyJ-NEzZE_JQE0cx6V-19" value="3" style="rounded=0;whiteSpace=wrap;html=1;" vertex="1" parent="1">
          <mxGeometry x="280" y="320" width="40" height="40" as="geometry" />
        </mxCell>
        <mxCell id="7GRyJ-NEzZE_JQE0cx6V-20" value="3" style="rounded=0;whiteSpace=wrap;html=1;" vertex="1" parent="1">
          <mxGeometry x="320" y="320" width="40" height="40" as="geometry" />
        </mxCell>
        <mxCell id="7GRyJ-NEzZE_JQE0cx6V-21" value="5" style="rounded=0;whiteSpace=wrap;html=1;fillColor=#dae8fc;strokeColor=#6c8ebf;" vertex="1" parent="1">
          <mxGeometry x="400" y="370" width="40" height="40" as="geometry" />
        </mxCell>
        <mxCell id="7GRyJ-NEzZE_JQE0cx6V-22" value="3" style="rounded=0;whiteSpace=wrap;html=1;" vertex="1" parent="1">
          <mxGeometry x="320" y="370" width="40" height="40" as="geometry" />
        </mxCell>
        <mxCell id="7GRyJ-NEzZE_JQE0cx6V-23" value="3" style="rounded=0;whiteSpace=wrap;html=1;" vertex="1" parent="1">
          <mxGeometry x="360" y="370" width="40" height="40" as="geometry" />
        </mxCell>
        <mxCell id="7GRyJ-NEzZE_JQE0cx6V-24" value="5" style="rounded=0;whiteSpace=wrap;html=1;" vertex="1" parent="1">
          <mxGeometry x="400" y="420" width="40" height="40" as="geometry" />
        </mxCell>
        <mxCell id="7GRyJ-NEzZE_JQE0cx6V-26" value="3" style="rounded=0;whiteSpace=wrap;html=1;" vertex="1" parent="1">
          <mxGeometry x="360" y="420" width="40" height="40" as="geometry" />
        </mxCell>
        <mxCell id="7GRyJ-NEzZE_JQE0cx6V-27" value="5" style="rounded=0;whiteSpace=wrap;html=1;fillColor=#dae8fc;strokeColor=#6c8ebf;" vertex="1" parent="1">
          <mxGeometry x="440" y="420" width="40" height="40" as="geometry" />
        </mxCell>
        <mxCell id="7GRyJ-NEzZE_JQE0cx6V-28" value="5" style="rounded=0;whiteSpace=wrap;html=1;" vertex="1" parent="1">
          <mxGeometry x="400" y="470" width="40" height="40" as="geometry" />
        </mxCell>
        <mxCell id="7GRyJ-NEzZE_JQE0cx6V-29" value="6" style="rounded=0;whiteSpace=wrap;html=1;fillColor=#dae8fc;strokeColor=#6c8ebf;" vertex="1" parent="1">
          <mxGeometry x="480" y="470" width="40" height="40" as="geometry" />
        </mxCell>
        <mxCell id="7GRyJ-NEzZE_JQE0cx6V-30" value="5" style="rounded=0;whiteSpace=wrap;html=1;" vertex="1" parent="1">
          <mxGeometry x="440" y="470" width="40" height="40" as="geometry" />
        </mxCell>
        <mxCell id="7GRyJ-NEzZE_JQE0cx6V-31" value="5" style="rounded=0;whiteSpace=wrap;html=1;" vertex="1" parent="1">
          <mxGeometry x="440" y="520" width="40" height="40" as="geometry" />
        </mxCell>
        <mxCell id="7GRyJ-NEzZE_JQE0cx6V-32" value="7" style="rounded=0;whiteSpace=wrap;html=1;fillColor=#dae8fc;strokeColor=#6c8ebf;" vertex="1" parent="1">
          <mxGeometry x="520" y="520" width="40" height="40" as="geometry" />
        </mxCell>
        <mxCell id="7GRyJ-NEzZE_JQE0cx6V-33" value="6" style="rounded=0;whiteSpace=wrap;html=1;" vertex="1" parent="1">
          <mxGeometry x="480" y="520" width="40" height="40" as="geometry" />
        </mxCell>
      </root>
    </mxGraphModel>
  </diagram>
</mxfile>
